<?xml version="1.0" encoding="utf-8"?>
<!-- Generator: Adobe Illustrator 22.0.0, SVG Export Plug-In . SVG Version: 6.00 Build 0)  -->
<svg version="1.1" id="Layer_1" xmlns="http://www.w3.org/2000/svg" xmlns:xlink="http://www.w3.org/1999/xlink" x="0px" y="0px"
	 viewBox="0 0 500 732.9" style="enable-background:new 0 0 500 732.9;" xml:space="preserve">
<style type="text/css">
	.st0{fill:#FFFBF5;}
	.st1{fill:#FFF4CE;}
	.st2{opacity:0.35;}
	.st3{fill:#F9FBFC;}
	.st4{fill:#FFFFFF;}
	.st5{fill:#E6ECEF;}
	.st6{fill:#F7F8F9;}
	.st7{fill:#F0F2F2;}
	.st8{fill:#DFFAD7;}
	.st9{fill:#4CAF50;}
	.st10{fill:#DFF5FF;}
	.st11{fill:#4BBEFF;}
	.st12{fill:#F9F3D7;}
	.st13{fill:#F7B500;}
	.st14{opacity:0.25;}
	.st15{fill:#FFDFE4;}
	.st16{fill:#FA5454;}
	.st17{fill:#FEAA00;}
	.st18{fill:#D6D6D6;}
	.st19{fill:#ECEAE6;}
	.st20{fill:#313131;}
	.st21{fill:#FFC90D;}
	.st22{fill:none;stroke:#313131;stroke-width:5;stroke-linecap:round;stroke-linejoin:round;stroke-miterlimit:10;}
	.st23{fill:#FB9200;}
</style>
<g id="BG">
	<rect x="0" class="st0" width="500" height="732.9"/>
	<path class="st1" d="M216.6,0L211,15.9c-5.1,14.5-2.1,30.6,7.9,42.3l84.9,99.2c10,11.7,25.5,17.2,40.6,14.3l128.4-23.9
		c11.1-2.1,20.8-8.4,27.2-17.4V0L216.6,0z"/>
	<path class="st1" d="M0,681.5l59.9-16.2c11.2-3,23.3,0.1,31.5,8.4l59.5,59.2H0V681.5z"/>
</g>
<g>
	<g class="st2">
		
			<image style="overflow:visible;opacity:0.37;" width="367" height="587" xlink:href="18379417.png"  transform="matrix(1 0 0 1 72 80)">
		</image>
		<g>
			<path class="st3" d="M347.5,626.8H150.2c-28.4,0-51.5-23.1-51.5-51.5V157.6c0-28.4,23.1-51.5,51.5-51.5h197.3
				c28.4,0,51.5,23.1,51.5,51.5v417.7C399,603.7,375.9,626.8,347.5,626.8z"/>
		</g>
	</g>
	<g>
		<path class="st4" d="M365.7,633.6H131.9c-20.5,0-37.2-16.6-37.2-37.2V136.4c0-20.5,16.6-37.2,37.2-37.2h233.8
			c20.5,0,37.2,16.6,37.2,37.2v460.1C402.9,617,386.3,633.6,365.7,633.6z"/>
		<path class="st3" d="M365.2,618.9H132.4c-12.3,0-22.3-10-22.3-22.3V136.3c0-12.3,10-22.3,22.3-22.3h232.8
			c12.3,0,22.3,10,22.3,22.3v460.4C387.6,609,377.6,618.9,365.2,618.9z"/>
	</g>
	<g>
		<path class="st5" d="M146.7,147.7h-11.1c-1.8,0-3.2-1.4-3.2-3.2v-0.7c0-1.8,1.4-3.2,3.2-3.2h11.1c1.8,0,3.2,1.4,3.2,3.2v0.7
			C150,146.2,148.5,147.7,146.7,147.7z"/>
		<path class="st5" d="M146.7,157.2h-11.1c-1.8,0-3.2-1.4-3.2-3.2v-0.7c0-1.8,1.4-3.2,3.2-3.2h11.1c1.8,0,3.2,1.4,3.2,3.2v0.7
			C150,155.8,148.5,157.2,146.7,157.2z"/>
		<path class="st5" d="M296,168.3H181c-9.3,0-16.8-7.5-16.8-16.8v-3.8c0-9.3,7.5-16.8,16.8-16.8h115c9.3,0,16.8,7.5,16.8,16.8v3.8
			C312.8,160.8,305.3,168.3,296,168.3z"/>
		<path class="st6" d="M189,155.4c1.8-1.5,2.9-3.8,2.9-6.3c0-4.5-3.7-8.2-8.2-8.2c-4.5,0-8.2,3.7-8.2,8.2c0,4.5,3.7,8.2,8.2,8.2
			c1,0,2-0.2,2.9-0.5l2.4,3.2c0.3,0.4,0.7,0.5,1.1,0.5c0.3,0,0.6-0.1,0.8-0.3c0.6-0.5,0.7-1.3,0.3-1.9L189,155.4z"/>
	</g>
	<g>
		<rect x="110.1" y="284.6" class="st7" width="277.5" height="2.7"/>
		<path class="st5" d="M337.2,353.2h-83.8c-8.2,0-14.9-6.7-14.9-14.9v-0.1c0-8.2,6.7-14.9,14.9-14.9h83.8c8.2,0,14.9,6.7,14.9,14.9
			v0.1C352.1,346.5,345.5,353.2,337.2,353.2z"/>
		<path class="st5" d="M337.2,552.8h-83.8c-8.2,0-14.9-6.7-14.9-14.9v-0.1c0-8.2,6.7-14.9,14.9-14.9h83.8c8.2,0,14.9,6.7,14.9,14.9
			v0.1C352.1,546.1,345.5,552.8,337.2,552.8z"/>
		<path class="st5" d="M337.2,253.3h-83.8c-8.2,0-14.9-6.7-14.9-14.9v-0.1c0-8.2,6.7-14.9,14.9-14.9h83.8c8.2,0,14.9,6.7,14.9,14.9
			v0.1C352.1,246.7,345.5,253.3,337.2,253.3z"/>
		<g>
			<circle class="st8" cx="183.2" cy="537.9" r="33.5"/>
			<path class="st9" d="M194,525.9c1.3,0.4,2.7-0.4,3.1-1.7c0.4-1.3-0.4-2.7-1.7-3.1c-8.5-2.3-16.9,2-20.4,9.4h-3.3
				c-1.4,0-2.5,1.1-2.5,2.5s1.1,2.5,2.5,2.5h1.8c-0.2,1.3-0.2,2.6-0.1,4h-1.7c-1.4,0-2.5,1.1-2.5,2.5c0,1.4,1.1,2.5,2.5,2.5h2.8
				c3.1,7.9,11.9,12.8,20.8,10.3c1.3-0.4,2.1-1.7,1.7-3.1c-0.4-1.3-1.7-2.1-3.1-1.7c-5.6,1.5-11.2-1-14-5.5h7.9
				c1.4,0,2.5-1.1,2.5-2.5c0-1.4-1.1-2.5-2.5-2.5h-9.6c-0.2-1.3-0.1-2.7,0.2-4h12.7c1.4,0,2.5-1.1,2.5-2.5s-1.1-2.5-2.5-2.5h-10.5
				C183.7,526.4,188.9,524.4,194,525.9L194,525.9z"/>
		</g>
		<g>
			<circle class="st10" cx="183.2" cy="338.2" r="33.5"/>
			<path class="st11" d="M194.3,350.7c-5-1.6-10.2-2-15.3-1.2c1-2.7,1.6-5.4,1.9-8.2h4.8c1.4,0,2.5-1.1,2.5-2.5
				c0-1.4-1.1-2.5-2.5-2.5h-4.6c-0.1-1.5-0.2-2.2-0.4-4.7c-0.3-3.1,2.1-5.8,5.2-5.8c1.5,0,2.9,0.6,3.9,1.8c0.9,1,2.5,1.1,3.5,0.2
				c1-0.9,1.1-2.5,0.2-3.5c-1.9-2.2-4.7-3.4-7.6-3.4c-6.1,0-10.8,5.3-10.2,11.3c0.3,2.5,0.3,3,0.4,4.1h-3.3c-1.4,0-2.5,1.1-2.5,2.5
				c0,1.4,1.1,2.5,2.5,2.5h3.1c-0.5,3.7-1.6,7.3-3.5,10.6c-1.1,1.9,0.7,4.2,2.9,3.6c5.8-1.6,11.2-2,17.5,0c1.3,0.4,2.7-0.3,3.1-1.6
				C196.3,352.6,195.6,351.2,194.3,350.7L194.3,350.7z"/>
		</g>
		<g>
			<circle class="st12" cx="183.2" cy="238.1" r="33.5"/>
			<path class="st13" d="M186.4,235.3h-6.5c-1.7,0-3-1.4-3-3c0-1.7,1.4-3,3-3c0,0,0,0,0,0h6.2c1.4,0,2.8,0.8,3.7,2.1l0,0.1
				c0.8,1.3,2.5,1.7,3.8,0.8c1.3-0.8,1.7-2.5,0.8-3.8l0-0.1c-1.8-2.8-4.8-4.6-8.5-4.6v-2.9c0-1.5-1.2-2.8-2.8-2.8s-2.8,1.2-2.8,2.8
				v2.9c-5.6,0-9,4.1-9,8.6c0,4.7,3.8,8.6,8.6,8.6h6.5c1.7,0,3,1.4,3,3c0,1.6-1.3,3-3.1,3h-6.7c-1.2,0-2.5-0.6-3.3-1.6
				c-1-1.2-2.7-1.3-3.9-0.4c-1.2,1-1.3,2.7-0.4,3.9c2.3,2.8,5.1,3.6,8.4,3.6v2.9c0,1.5,1.2,2.8,2.8,2.8s2.8-1.2,2.8-2.8v-2.9
				c5.6,0,9-4.1,9-8.6C195,239.2,191.1,235.3,186.4,235.3L186.4,235.3z"/>
		</g>
	</g>
	<g>
		<g>
			<g class="st14">
				
					<image style="overflow:visible;opacity:0.37;" width="396" height="164" xlink:href="18379415.png"  transform="matrix(1 0 0 1 56 363)">
				</image>
				<g>
					<path class="st3" d="M397.2,486.8H96.4c-7.7,0-14-6.3-14-14v-69.2c0-7.7,6.3-14,14-14h300.9c7.7,0,14,6.3,14,14v69.2
						C411.2,480.6,405,486.8,397.2,486.8z"/>
				</g>
			</g>
			<path class="st4" d="M403.3,488.6H96.7c-7.9,0-14.3-6.4-14.3-14.3v-72.4c0-7.9,6.4-14.3,14.3-14.3h306.5
				c7.9,0,14.3,6.4,14.3,14.3v72.4C417.6,482.2,411.2,488.6,403.3,488.6z"/>
		</g>
		<path class="st5" d="M337.2,453h-83.8c-8.2,0-14.9-6.7-14.9-14.9V438c0-8.2,6.7-14.9,14.9-14.9h83.8c8.2,0,14.9,6.7,14.9,14.9v0.1
			C352.1,446.3,345.5,453,337.2,453z"/>
		<g>
			<circle class="st15" cx="183.2" cy="438.1" r="33.5"/>
			<path class="st16" d="M195.1,421.1c-1.1-0.8-2.7-0.6-3.5,0.5l-8.5,11.3l-8.5-11.3c-0.8-1.1-2.4-1.3-3.5-0.5
				c-1.1,0.8-1.3,2.4-0.5,3.5l7.5,10h-4.5c-1.4,0-2.5,1.1-2.5,2.5c0,1.4,1.1,2.5,2.5,2.5h7v4.4h-7c-1.4,0-2.5,1.1-2.5,2.5
				c0,1.4,1.1,2.5,2.5,2.5h7v4c0,1.4,1.1,2.5,2.5,2.5s2.5-1.1,2.5-2.5v-4h7c1.4,0,2.5-1.1,2.5-2.5c0-1.4-1.1-2.5-2.5-2.5h-7v-4.4h7
				c1.4,0,2.5-1.1,2.5-2.5c0-1.4-1.1-2.5-2.5-2.5h-4.5l7.5-10C196.4,423.5,196.2,421.9,195.1,421.1L195.1,421.1z"/>
		</g>
	</g>
	<g>
		<g>
			<path class="st17" d="M367,487.5l-36.7-17.4c-0.3-0.2-0.7-0.1-1,0.1c-0.3,0.2-0.4,0.6-0.2,1l13.8,38.9c0.1,0.4,0.5,0.6,0.8,0.6
				c0.1,0,0.2,0,0.3-0.1c0.2-0.1,0.4-0.3,0.5-0.5l5.8-15l16.5-5.9c0.3-0.1,0.6-0.4,0.6-0.8C367.5,488,367.3,487.7,367,487.5z"/>
		</g>
	</g>
</g>
<g>
	<g>
		<path class="st18" d="M98.9,178.3c0,0,14-16.4,4.5-28.5s-31.6-2.6-23.9,21S98.9,178.3,98.9,178.3z"/>
		<path class="st19" d="M85.8,172.2c0,0-5.3-19.9-19.9-18.9s-19,23.4,3.6,30.1S85.8,172.2,85.8,172.2z"/>
	</g>
	<g>
		<path class="st20" d="M47.3,211.5l-5.7,6.9c-0.8,0.9-0.5,2.3,0.6,2.8l7.7,3.9L47.3,211.5z"/>
		<path class="st21" d="M146.9,193.9c6.8,26-12.2,37.9-40.1,44.5c-27.9,6.7-56.9-2.2-60.2-20.9c-3.2-17.9,17.9-38.7,41.8-45.3
			C114.8,164.9,138.4,161.1,146.9,193.9z"/>
		<path class="st20" d="M93.2,240.5c4.5-0.3,9.1-1,13.6-2c0.6-0.2,1.3-0.3,1.9-0.5l-2.4-4.5c-9.6-18.1-14.6-38.2-14.7-58.6l0-3.5
			c-1.1,0.3-2.1,0.6-3.2,0.9c-3.9,1.1-7.7,2.5-11.3,4.3v0c-0.4,21.3,4.7,42.4,14.6,61.3L93.2,240.5z"/>
		<path class="st20" d="M71.4,238.7c4.6,1.2,9.6,1.8,14.8,2l-1.8-2.7c-11-17.1-16-37.4-14.2-57.7v0c-4.2,2.6-8.1,5.6-11.4,8.9l0,0
			c-2.4,16.9,1.7,34.1,11.5,48.1L71.4,238.7z"/>
		<path class="st22" d="M110.5,193c-0.9-4.6,1.8-9.1,6-9.9c4.2-0.8,8.3,2.3,9.2,7"/>
	</g>
</g>
<g>
	<g>
		
			<image style="overflow:visible;opacity:0.12;" width="104" height="103" xlink:href="1837941B.png"  transform="matrix(1 0 0 1 337 69.5634)">
		</image>
		<g>
			<path class="st4" d="M389,163.4h-0.2c-23.3,0-42.2-18.9-42.2-42.2V121c0-23.3,18.9-42.2,42.2-42.2h0.2
				c23.3,0,42.2,18.9,42.2,42.2v0.2C431.2,144.5,412.3,163.4,389,163.4z"/>
		</g>
	</g>
	<g>
		<g>
			<g>
				<g>
					<path class="st23" d="M407.2,133.4c-0.2-0.5-0.7-0.8-1.3-0.8h-5.6v-19.5h-8.3v19.5h-5.6c-0.5,0-1,0.3-1.3,0.8
						c-0.2,0.5-0.1,1.1,0.2,1.5l9.7,11.1c0.3,0.3,0.6,0.5,1,0.5s0.8-0.2,1-0.5l9.7-11.1C407.4,134.5,407.5,133.9,407.2,133.4z"/>
				</g>
			</g>
			<g>
				<g>
					<path class="st17" d="M392.4,107.2l-9.7-11.1c-0.3-0.3-0.6-0.5-1-0.5c-0.4,0-0.8,0.2-1,0.5l-9.7,11.1c-0.4,0.4-0.4,1-0.2,1.5
						c0.2,0.5,0.7,0.8,1.3,0.8h5.6V129h8.3v-19.5h5.6c0.5,0,1-0.3,1.3-0.8C392.8,108.2,392.7,107.6,392.4,107.2z"/>
				</g>
			</g>
		</g>
	</g>
</g>
</svg>
