<svg xmlns="http://www.w3.org/2000/svg" viewBox="0 0 640 480"><path style="fill:#fff" d="M0 0h640v480H0V0z"/><path style="fill:#dc171d" d="M248.9 0h142.2v480H248.9V0z"/><path style="fill:#012a87" d="M0 160h640v160H0V160z"/><path style="fill:#fff" d="m210.4 115.4-3.9 11.9 6 1.9-2.1-13.8z" transform="scale(1.5)"/><path style="fill:#fff" d="m210.4 115.4 3.9 11.9-6 1.9 2.1-13.8z" transform="scale(-1.5 1.5)"/><path style="fill:#fff" d="M222.3 124.1h-12.5v6.3l12.5-6.3z" transform="rotate(72) scale(1.5)"/><path style="fill:#fff" d="m222.3 124.1-10.1 7.4-3.7-5.1 13.8-2.3z" transform="scale(-1.5 1.5) rotate(-72)"/><path style="fill:#fff" d="m198.5 124.1 10.1 7.4 3.7-5.1-13.8-2.3z" transform="rotate(-72) scale(1.5)"/><path style="fill:#fff" d="M198.5 124.1H211v6.3l-12.5-6.3z" transform="scale(-1.5 1.5) rotate(72)"/><g><path style="fill:#fff" d="m217.8 138.1-3.9-11.9-6 1.9 9.9 10z" transform="rotate(144) scale(1.5)"/><path style="fill:#fff" d="m217.8 138.1-10.1-7.4 3.7-5.1 6.4 12.5z" transform="scale(1.5 -1.5) rotate(36)"/></g><g><path style="fill:#fff" d="m203.1 138.1 10.1-7.4-3.7-5.1-6.4 12.5z" transform="rotate(-144) scale(1.5)"/><path style="fill:#fff" d="m203.1 138.1 3.9-11.9 6 1.9-9.9 10z" transform="scale(1.5 -1.5) rotate(-36)"/></g><g><path style="fill:#fff" d="m277.2 143.1-3.9 11.9 6 1.9-2.1-13.8z" transform="matrix(1.5 0 0 1.5 8 3.314)"/><path style="fill:#fff" d="m277.2 143.1 3.9 11.9-6 1.9 2.1-13.8z" transform="matrix(-1.5 0 0 1.5 8 3.314)"/><path style="fill:#fff" d="M289.1 151.7h-12.5v6.3l12.5-6.3z" transform="rotate(72 1.72 7.162) scale(1.5)"/><path style="fill:#fff" d="m289.1 151.7-10.1 7.4-3.7-5.1 13.8-2.3z" transform="scale(-1.5 1.5) rotate(-72 -1.146 4.775)"/><path style="fill:#fff" d="m265.3 151.7 10.1 7.4 3.7-5.1-13.8-2.3z" transform="rotate(-72 6.28 -3.849) scale(1.5)"/><path style="fill:#fff" d="M265.3 151.7h12.5v6.3l-12.5-6.3z" transform="scale(-1.5 1.5) rotate(72 -4.187 -2.566)"/><g><path style="fill:#fff" d="m284.6 165.7-3.9-11.9-6 1.9 9.9 10z" transform="rotate(144 3.462 2.957) scale(1.5)"/><path style="fill:#fff" d="m284.6 165.7-10.1-7.4 3.7-5.1 6.4 12.5z" transform="scale(1.5 -1.5) rotate(36 6.066 7.103)"/></g><g><path style="fill:#fff" d="m269.9 165.7 10.1-7.4-3.7-5.1-6.4 12.5z" transform="rotate(-144 4.538 .357) scale(1.5)"/><path style="fill:#fff" d="m269.9 165.7 3.9-11.9 6 1.9-9.9 10z" transform="scale(1.5 -1.5) rotate(-36 -.733 -9.312)"/></g><g><path style="fill:#fff" d="m238.1 182.2-3.9 11.9 6 1.9-2.1-13.8z" transform="matrix(1.5 0 0 1.5 3.314 8)"/><path style="fill:#fff" d="m238.1 182.2 3.9 11.9-6 1.9 2.1-13.8z" transform="matrix(-1.5 0 0 1.5 3.314 8)"/><path style="fill:#fff" d="M250 190.9h-12.5v6.3l12.5-6.3z" transform="rotate(72 -3.849 6.28) scale(1.5)"/><path style="fill:#fff" d="m250 190.9-10.1 7.4-3.7-5.1 13.8-2.3z" transform="scale(-1.5 1.5) rotate(-72 2.566 4.187)"/><path style="fill:#fff" d="m226.2 190.9 10.1 7.4 3.7-5.1-13.8-2.3z" transform="rotate(-72 7.162 1.72) scale(1.5)"/><path style="fill:#fff" d="M226.2 190.9h12.5v6.3l-12.5-6.3z" transform="scale(-1.5 1.5) rotate(72 -4.775 1.146)"/><g><path style="fill:#fff" d="m245.5 204.9-3.9-11.9-6 1.9 9.9 10z" transform="rotate(144 .357 4.538) scale(1.5)"/><path style="fill:#fff" d="m245.5 204.9-10.1-7.4 3.7-5.1 6.4 12.5z" transform="scale(1.5 -1.5) rotate(36 9.312 .733)"/></g><g><path style="fill:#fff" d="m230.7 204.9 10.1-7.4-3.7-5.1-6.4 12.5z" transform="rotate(-144 2.957 3.462) scale(1.5)"/><path style="fill:#fff" d="m230.7 204.9 3.9-11.9 6 1.9-9.9 10z" transform="scale(1.5 -1.5) rotate(-36 -7.103 -6.066)"/></g></g></g><g><path style="fill:#fff" d="m143.6 143.1 3.9 11.9-6 1.9 2.1-13.8z" transform="matrix(-1.5 0 0 1.5 -8 3.314)"/><path style="fill:#fff" d="m143.6 143.1-3.9 11.9 6 1.9-2.1-13.8z" transform="matrix(1.5 0 0 1.5 -8 3.314)"/><path style="fill:#fff" d="M131.7 151.7h12.5v6.3l-12.5-6.3z" transform="scale(-1.5 1.5) rotate(72 1.146 4.775)"/><path style="fill:#fff" d="m131.7 151.7 10.1 7.4 3.7-5.1-13.8-2.3z" transform="rotate(-72 -1.72 7.162) scale(1.5)"/><path style="fill:#fff" d="m155.5 151.7-10.1 7.4-3.7-5.1 13.8-2.3z" transform="scale(-1.5 1.5) rotate(-72 4.187 -2.566)"/><path style="fill:#fff" d="M155.5 151.7H143v6.3l12.5-6.3z" transform="rotate(72 -6.28 -3.849) scale(1.5)"/><g><path style="fill:#fff" d="m136.3 165.7 3.9-11.9 6 1.9-9.9 10z" transform="scale(1.5 -1.5) rotate(-36 -6.066 7.103)"/><path style="fill:#fff" d="m136.3 165.7 10.1-7.4-3.7-5.1-6.4 12.5z" transform="rotate(-144 -3.462 2.957) scale(1.5)"/></g><g><path style="fill:#fff" d="m151 165.7-10.1-7.4 3.7-5.1 6.4 12.5z" transform="scale(1.5 -1.5) rotate(36 .733 -9.312)"/><path style="fill:#fff" d="m151 165.7-3.9-11.9-6 1.9 9.9 10z" transform="rotate(144 -4.538 .357) scale(1.5)"/></g><g><path style="fill:#fff" d="m182.8 182.2 3.9 11.9-6 1.9 2.1-13.8z" transform="matrix(-1.5 0 0 1.5 -3.314 8)"/><path style="fill:#fff" d="m182.8 182.2-3.9 11.9 6 1.9-2.1-13.8z" transform="matrix(1.5 0 0 1.5 -3.314 8)"/><path style="fill:#fff" d="M170.9 190.9h12.5v6.3l-12.5-6.3z" transform="scale(-1.5 1.5) rotate(72 -2.566 4.187)"/><path style="fill:#fff" d="m170.9 190.9 10.1 7.4 3.7-5.1-13.8-2.3z" transform="rotate(-72 3.849 6.28) scale(1.5)"/><path style="fill:#fff" d="m194.7 190.9-10.1 7.4-3.7-5.1 13.8-2.3z" transform="scale(-1.5 1.5) rotate(-72 4.775 1.146)"/><path style="fill:#fff" d="M194.7 190.9h-12.5v6.3l12.5-6.3z" transform="rotate(72 -7.162 1.72) scale(1.5)"/><g><path style="fill:#fff" d="m175.4 204.9 3.9-11.9 6 1.9-9.9 10z" transform="scale(1.5 -1.5) rotate(-36 -9.312 .733)"/><path style="fill:#fff" d="m175.4 204.9 10.1-7.4-3.7-5.1-6.4 12.5z" transform="rotate(-144 -.357 4.538) scale(1.5)"/></g><g><path style="fill:#fff" d="m190.1 204.9-10.1-7.4 3.7-5.1 6.4 12.5z" transform="scale(1.5 -1.5) rotate(36 7.103 -6.066)"/><path style="fill:#fff" d="m190.1 204.9-3.9-11.9-6 1.9 9.9 10z" transform="rotate(144 -2.957 3.462) scale(1.5)"/></g></g></g></svg>