<svg xmlns="http://www.w3.org/2000/svg" viewBox="0 0 640 480"><path style="fill:#f7931a" d="M640 480H0V0h640v480z"/><path style="fill:#fff" d="M455.3 204.7c5.7-37.8-23.1-58.2-62.5-71.7l12.8-51.2-31.3-7.8-12.4 49.9c-8.2-2-16.6-4-25-5.9l12.5-50.2-31.1-7.8-12.8 51.2c-6.8-1.5-13.5-3.1-19.9-4.7v-.2l-43-10.7-8.3 33.3s23.1 5.3 22.7 5.6c12.6 3.2 14.9 11.5 14.5 18.1L256.9 211c.9.2 2 .5 3.2 1-1-.3-2.1-.5-3.3-.8L236.4 293c-1.5 3.8-5.5 9.6-14.3 7.4.3.5-22.7-5.7-22.7-5.7L184 330.6l40.6 10.1c7.6 1.9 15 3.9 22.2 5.7l-12.9 51.8 31.2 7.8 12.8-51.3c8.5 2.3 16.8 4.4 24.9 6.4l-12.7 51 31.2 7.8 12.9-51.7c53.2 10.1 93.2 6 110-42.1 13.6-38.7-.7-61.1-28.7-75.6 20.3-4.7 35.7-18.1 39.8-45.8zm-71.3 100c-9.6 38.7-74.9 17.8-96 12.5l17.1-68.7c21.2 5.3 89 15.8 78.9 56.2zm9.7-100.5c-8.8 35.2-63.1 17.3-80.7 12.9l15.5-62.3c17.6 4.4 74.3 12.6 65.2 49.4z"/></svg>