<svg xmlns="http://www.w3.org/2000/svg" viewBox="0 0 640 480"><path style="fill:#de0000" d="M0 0h640v480H0V0z"/><path style="fill:#093" d="M0 165h640v150H0V165z"/><path style="fill:gold" d="m106.5 20-4.7 14.5H86.5l12.4 9L94.2 58l12.4-9 12.4 9-4.7-14.5 12.4-9h-15.3L106.5 20zm0 7.5 3 9.3h9.8l-7.9 5.7 3 9.3-7.9-5.7-7.9 5.7 3-9.3-7.9-5.7h9.8l3-9.3z"/><path style="fill:gold" d="m102.7 118.1 12.6 12.7 11.9-11.8c18 19.3 37 38 54.9 57.4 2.7 2.7 7.1 2.7 9.8 0 2.7-2.7 2.7-7.1 0-9.8-19.2-18.1-38.5-36.4-57.7-54.6l16-15.9L128 93l-25.3 25.1z" transform="matrix(.79146 0 0 .78939 -6.937 3.013)"/><path style="fill:gold" d="M143.3 77.1c10.3 5.8 18.2 14.2 22.8 22.9 4.7 8.9 6.8 18.1 6.8 25.5.1 15.2-12.3 27.5-27.5 27.5-8.1 0-15.4-3.5-20.4-9.1l-2.8 2.3c-.5-.2-1-.3-1.5-.3-1.2 0-2.4.5-3.2 1.5-2 .3-3.6 1.6-4.3 3.5-2.1 4.2-5.8 7.5-10.2 9 0 0-.1 0-.1.1-2.1.8-4.1 2.1-5.9 3.9-3.5 3.5-5.2 8-4.2 11.1-.1.3-.1.6-.1.8 0 1.4 1.2 2.6 2.6 2.6.4 0 .7-.1 1.1-.2 3.1.7 7.4-1 10.7-4.4 1.9-1.9 3.3-4.1 4-6.4 1.5-4.4 4.9-8 9.1-10 .1 0 .2-.1.3-.1 1.4-.7 2.4-2 2.8-3.5 6.5 7.6 16.2 12.5 27 12.8 19.9.5 34.8-14.2 35.4-35.2.3-10.6-3.8-24.3-13.1-35.5-7-8.5-17.5-15.6-29.3-18.8z" transform="matrix(.79146 0 0 .78939 -6.937 3.013)"/></svg>